<svg id="visual" viewBox="0 0 900 600" width="900" height="600" xmlns="http://www.w3.org/2000/svg" xmlns:xlink="http://www.w3.org/1999/xlink" version="1.1"><rect x="0" y="0" width="900" height="600" fill="#001220"></rect><defs><linearGradient id="grad1_0" x1="33.3%" y1="0%" x2="100%" y2="100%"><stop offset="20%" stop-color="#001220" stop-opacity="1"></stop><stop offset="80%" stop-color="#001220" stop-opacity="1"></stop></linearGradient></defs><defs><linearGradient id="grad2_0" x1="0%" y1="0%" x2="66.7%" y2="100%"><stop offset="20%" stop-color="#001220" stop-opacity="1"></stop><stop offset="80%" stop-color="#001220" stop-opacity="1"></stop></linearGradient></defs><g transform="translate(900, 0)"><path d="M0 486.7C-46.2 442.7 -92.5 398.7 -158.8 383.4C-225.1 368.1 -311.5 381.4 -344.2 344.2C-376.8 307 -355.7 219.2 -370.5 153.5C-385.3 87.7 -436 43.8 -486.7 0L0 0Z" fill="#FBAE3C"></path></g><g transform="translate(0, 600)"><path d="M0 -486.7C59.1 -474.3 118.2 -461.9 183.3 -442.5C248.4 -423.2 319.5 -396.9 344.2 -344.2C368.8 -291.4 347.1 -212.2 363.1 -150.4C379.1 -88.6 432.9 -44.3 486.7 0L0 0Z" fill="#FBAE3C"></path></g></svg>